<svg width="42" height="42" viewBox="0 0 42 42" fill="none" xmlns="http://www.w3.org/2000/svg">
<path d="M33 13.3008C32.1016 13.6992 31.1992 14 30.1992 14.1016C31.1992 13.5 32 12.5 32.3984 11.3984C31.3984 12 30.3984 12.3984 29.3008 12.6016C28.3008 11.6016 27 11 25.6016 11C22.8984 11 20.6992 13.1992 20.6992 15.8984C20.6992 16.3008 20.6992 16.6992 20.8008 17C16.6992 16.8008 13.1016 14.8984 10.6992 11.8984C10.1992 12.6016 10 13.5 10 14.3984C10 16.1016 10.8984 17.6016 12.1992 18.5C11.3984 18.3984 10.6016 18.1992 10 17.8984C10 17.8984 10 17.8984 10 18C10 20.3984 11.6992 22.3984 13.8984 22.8008C13.5 22.8984 13.1016 23 12.6016 23C12.3008 23 12 23 11.6992 22.8984C12.3008 24.8984 14.1016 26.3008 16.3008 26.3008C14.6016 27.6016 12.5 28.3984 10.1992 28.3984C9.80078 28.3984 9.39844 28.3984 9 28.3008C11.1992 29.6992 13.8008 30.5 16.5 30.5C25.6016 30.5 30.5 23 30.5 16.5C30.5 16.3008 30.5 16.1016 30.5 15.8984C31.5 15.1992 32.3008 14.3008 33 13.3008Z" fill="white" fill-opacity="0.8"/>
<path d="M21 40.5C31.7696 40.5 40.5 31.7696 40.5 21C40.5 10.2304 31.7696 1.5 21 1.5C10.2304 1.5 1.5 10.2304 1.5 21C1.5 31.7696 10.2304 40.5 21 40.5Z" stroke="white" stroke-opacity="0.8" stroke-width="3"/>
</svg>
