<svg width="43" height="43" viewBox="0 0 43 43" fill="none" xmlns="http://www.w3.org/2000/svg">
<path d="M21.25 0.294922C9.67113 0.294922 0.25 9.71605 0.25 21.2949C0.25 32.8738 9.67113 42.2949 21.25 42.2949C32.8289 42.2949 42.25 32.8738 42.25 21.2949C42.25 9.71605 32.8289 0.294922 21.25 0.294922ZM21.25 3.52569C31.0828 3.52569 39.0192 11.4621 39.0192 21.2949C39.0192 30.2323 32.453 37.5813 23.875 38.8496V26.4314H28.8916L29.6803 21.3391H23.875V18.5501C23.875 16.4339 24.5637 14.5557 26.5441 14.5557H29.7244V10.1072C29.1655 10.0328 27.9848 9.8673 25.7491 9.8673C21.0839 9.8673 18.3474 12.3324 18.3474 17.9442V21.3328H13.5517V26.4314H18.3537V38.8055C9.90933 37.4233 3.48077 30.1377 3.48077 21.2949C3.48077 11.4621 11.4172 3.52569 21.25 3.52569Z" fill="white" fill-opacity="0.8"/>
</svg>
