<svg width="83" height="78" viewBox="0 0 83 78" fill="none" xmlns="http://www.w3.org/2000/svg">
<path fill-rule="evenodd" clip-rule="evenodd" d="M2.47647 53.466H73.5935V45.483H2.47647V53.466ZM51.7135 65.443H55.6565V68.972H20.4135V65.443H24.3555C25.0115 65.443 25.5405 64.914 25.5405 64.26V55.833H50.5285V64.26C50.5285 64.914 51.0585 65.443 51.7135 65.443ZM2.47647 43.116H73.5935V2.94996H2.47647V43.115V43.116ZM1.29047 0.584961C0.635469 0.584961 0.105469 1.11396 0.105469 1.76796V54.65C0.105469 55.305 0.635469 55.834 1.29047 55.834H23.1705V63.077H19.2275C18.5725 63.077 18.0425 63.609 18.0425 64.261V70.156C18.0425 70.808 18.5725 71.34 19.2275 71.34H56.8425C57.4965 71.34 58.0275 70.808 58.0275 70.156V64.26C58.0275 63.608 57.4965 63.076 56.8425 63.076H52.8985V55.833H74.7785C75.4335 55.833 75.9645 55.303 75.9645 54.649V1.76996C75.9645 1.11496 75.4335 0.585961 74.7795 0.585961H1.29047V0.584961Z" fill="#62E0D9"/>
<path fill-rule="evenodd" clip-rule="evenodd" d="M36.4125 47.9199C35.7585 47.9199 35.2275 48.4499 35.2275 49.1039C35.2275 49.4182 35.3524 49.7196 35.5746 49.9418C35.7968 50.1641 36.0983 50.2889 36.4125 50.2889C36.7268 50.2889 37.0282 50.1641 37.2505 49.9418C37.4727 49.7196 37.5975 49.4182 37.5975 49.1039C37.5975 48.4509 37.0665 47.9199 36.4125 47.9199" fill="#62E0D9"/>
<path d="M79.3572 23.8909H58.6602C57.3005 23.8909 56.1982 24.9931 56.1982 26.3529V74.2239C56.1982 75.5836 57.3005 76.6859 58.6602 76.6859H79.3572C80.717 76.6859 81.8192 75.5836 81.8192 74.2239V26.3529C81.8192 24.9931 80.717 23.8909 79.3572 23.8909Z" stroke="#62E0D9" stroke-width="1.641"/>
<path fill-rule="evenodd" clip-rule="evenodd" d="M56.1064 29.7158H81.9094V30.7158H56.1064V29.7158ZM56.1064 67.5848H81.9094V68.5848H56.1064V67.5848Z" fill="white" stroke="#62E0D9" stroke-width="1.458"/>
<path d="M68.4155 72.7718C69.0699 72.7718 69.6005 72.2421 69.6005 71.5888C69.6005 70.9354 69.0699 70.4058 68.4155 70.4058C67.761 70.4058 67.2305 70.9354 67.2305 71.5888C67.2305 72.2421 67.761 72.7718 68.4155 72.7718Z" stroke="#62E0D9" stroke-width="1.01"/>
<path fill-rule="evenodd" clip-rule="evenodd" d="M45.4002 15.969H45.2032L39.9682 18.039L34.0412 15.969L28.5102 17.843C28.3122 17.941 28.1152 18.04 28.1152 18.336V33.226C28.1152 33.523 28.3122 33.72 28.6092 33.72H28.8062L34.0412 31.649L39.9682 33.719L45.4992 31.846C45.6972 31.747 45.8942 31.55 45.8942 31.353V16.462C45.8942 16.166 45.6972 15.969 45.4002 15.969ZM39.9682 30.76L34.0412 28.763V17.448L39.9682 19.445V30.761V30.76Z" fill="#62E0D9"/>
<path fill-rule="evenodd" clip-rule="evenodd" d="M30.4852 15.969C29.1652 15.969 28.1152 16.886 28.1152 18.039C28.1152 19.579 30.4852 21.886 30.4852 21.886C30.4852 21.886 32.8562 19.578 32.8562 18.04C32.8562 16.886 31.8062 15.969 30.4862 15.969H30.4852ZM30.4852 18.927C29.9752 18.927 29.5742 18.566 29.5742 18.106C29.5742 17.646 29.9742 17.284 30.4852 17.284C30.9962 17.284 31.3972 17.645 31.3972 18.106C31.3972 18.566 30.9962 18.927 30.4852 18.927Z" fill="white"/>
</svg>
