<svg width="42" height="42" viewBox="0 0 42 42" fill="none" xmlns="http://www.w3.org/2000/svg">
<path d="M21 40.5C31.7696 40.5 40.5 31.7696 40.5 21C40.5 10.2304 31.7696 1.5 21 1.5C10.2304 1.5 1.5 10.2304 1.5 21C1.5 31.7696 10.2304 40.5 21 40.5Z" stroke="white" stroke-opacity="0.8" stroke-width="3"/>
<path d="M17 11.375C13.8939 11.375 11.375 13.8939 11.375 17V26C11.375 29.1061 13.8939 31.625 17 31.625H26C29.1061 31.625 31.625 29.1061 31.625 26V17C31.625 13.8939 29.1061 11.375 26 11.375H17ZM28.25 13.625C28.871 13.625 29.375 14.129 29.375 14.75C29.375 15.371 28.871 15.875 28.25 15.875C27.629 15.875 27.125 15.371 27.125 14.75C27.125 14.129 27.629 13.625 28.25 13.625ZM21.5 15.875C24.6061 15.875 27.125 18.3939 27.125 21.5C27.125 24.6061 24.6061 27.125 21.5 27.125C18.3939 27.125 15.875 24.6061 15.875 21.5C15.875 18.3939 18.3939 15.875 21.5 15.875ZM21.5 18.125C20.6049 18.125 19.7464 18.4806 19.1135 19.1135C18.4806 19.7464 18.125 20.6049 18.125 21.5C18.125 22.3951 18.4806 23.2536 19.1135 23.8865C19.7464 24.5194 20.6049 24.875 21.5 24.875C22.3951 24.875 23.2536 24.5194 23.8865 23.8865C24.5194 23.2536 24.875 22.3951 24.875 21.5C24.875 20.6049 24.5194 19.7464 23.8865 19.1135C23.2536 18.4806 22.3951 18.125 21.5 18.125Z" fill="white" fill-opacity="0.8"/>
</svg>
